<?xml version="1.0" encoding="UTF-8"?>
<!DOCTYPE svg PUBLIC "-//W3C//DTD SVG 1.1//EN" "http://www.w3.org/Graphics/SVG/1.1/DTD/svg11.dtd">
<!-- Creator: CorelDRAW 2020 (64-Bit) -->
<svg xmlns="http://www.w3.org/2000/svg" xml:space="preserve" width="100%" height="100%" version="1.1" style="shape-rendering:geometricPrecision; text-rendering:geometricPrecision; image-rendering:optimizeQuality; fill-rule:evenodd; clip-rule:evenodd"
viewBox="0 0 1633.33 833.33"
 xmlns:xlink="http://www.w3.org/1999/xlink"
 xmlns:xodm="http://www.corel.com/coreldraw/odm/2003">
 <defs>
  <style type="text/css">
   <![CDATA[
    .fil0 {fill:#1793D1}
    .fil1 {fill:#4D4D4D;fill-rule:nonzero}
   ]]>
  </style>
 </defs>
 <g id="Layer_x0020_1">
  <metadata id="CorelCorpID_0Corel-Layer"/>
  <circle class="fil0" cx="1052.46" cy="408.54" r="98.96"/>
  <path class="fil1" d="M320.4 283.33c-30.42,-14.72 -65.14,-21.94 -104.17,-21.94 -85.97,0 -129.03,45.69 -129.03,137.08 0,108.19 43.06,162.36 129.03,162.36 39.03,0 73.75,-5.28 104.17,-15.83l0 -261.67zm75.28 314.44c-51.81,17.08 -115.7,25.69 -191.67,25.69 -127.22,0 -190.83,-74.03 -190.83,-222.22 0,-136.67 67.5,-205 202.64,-205 36.94,0 71.8,6.81 104.58,20.28l0 -175 75.28 0 0 556.25z"/>
  <path id="1" class="fil1" d="M737.74 268.61c-25.69,-6.53 -57.64,-9.72 -95.56,-9.72 -90.97,0 -136.39,49.17 -136.39,147.64 0,101.25 43.06,151.81 129.03,151.81 39.03,0 73.33,-7.36 102.91,-21.94l0 -267.78zm75.28 354.86c0,103.06 -65.56,154.58 -196.53,154.58 -52.64,0 -99.31,-6.8 -140,-20.28l0 -61.11c41.53,13.61 88.47,20.42 140.83,20.42 80.28,0 120.41,-31.25 120.41,-93.61l0 -20.42c-31.94,13.61 -66.39,20.42 -103.33,20.42 -135.14,0 -202.64,-72.08 -202.64,-216.11 0,-140.7 71.25,-211.11 213.61,-211.11 57.78,0 113.61,5.83 167.64,17.5l0 409.72z"/>
  <path id="2" class="fil1" d="M924.52 408.19c0,102.78 42.78,154.17 128.19,154.17 85.42,0 128.2,-51.39 128.2,-154.17 0,-100.56 -42.78,-150.97 -128.2,-150.97 -85.41,0 -128.19,50.42 -128.19,150.97zm-75.28 1.67c0,-142.5 67.78,-213.61 203.47,-213.61 135.56,0 203.47,71.11 203.47,213.61 0,142.08 -67.91,213.19 -203.47,213.19 -135.14,0 -202.91,-71.11 -203.47,-213.19z"/>
  <path id="3" class="fil1" d="M1288.25 603.06l0 -65c50.14,16.25 100.97,24.31 152.22,24.31 68.06,0 102.09,-20.28 102.09,-60.97 0,-37.92 -23.75,-56.94 -71.11,-56.94l-61.11 0c-92.22,0 -138.33,-42.08 -138.33,-126.11 0,-81.39 59.31,-122.09 177.78,-122.09 50.97,0 101.67,6.81 151.81,20.28l0 65.14c-50.14,-16.25 -100.83,-24.44 -151.81,-24.44 -70.97,0 -106.53,20.42 -106.53,61.11 0,37.91 22.36,56.94 67.08,56.94l61.11 0c97.64,0 146.39,42.08 146.39,126.11 0,81.39 -59.17,122.08 -177.36,122.08 -51.25,0 -102.08,-6.81 -152.22,-20.42z"/>
 </g>
</svg>
