<svg xmlns="http://www.w3.org/2000/svg" viewBox="0 0 1600 1200" id="ProjectBlueprint"><defs><linearGradient id="a" x1="1426.7" x2="1460.39" y1="511.79" y2="798.95" gradientTransform="matrix(-1 0 0 1 2671.35 0)" gradientUnits="userSpaceOnUse"><stop offset="0" stop-color="#2e7294" class="stopColor362e94 svgShape"></stop><stop offset=".36" stop-color="#3981a5" class="stopColor4039a5 svgShape"></stop><stop offset="1" stop-color="#52a3cc" class="stopColor5652cc svgShape"></stop></linearGradient><linearGradient id="b" x1="1403.47" x2="1355.24" y1="512.07" y2="804.62" gradientTransform="matrix(-1 0 0 1 2671.35 0)" gradientUnits="userSpaceOnUse"><stop offset="0" stop-color="#3e89af" class="stopColor423eaf svgShape"></stop><stop offset=".64" stop-color="#4a99c0" class="stopColor4e4ac0 svgShape"></stop><stop offset="1" stop-color="#52a3cc" class="stopColor5652cc svgShape"></stop></linearGradient></defs><g data-name="Front woman&amp;#39;s parts" fill="#000000" class="color000000 svgShape"><ellipse cx="359.13" cy="975.43" fill="#e9f8ff" rx="164.16" ry="20.08" class="colore9efff svgShape"></ellipse><path fill="#e9f8ff" d="M1086.12,830.57c0-11.09,73.5-20.08,164.16-20.08s164.17,9,164.17,20.08-73.5,20.07-164.17,20.07S1086.12,841.66,1086.12,830.57Z" class="colore9efff svgShape"></path><polygon fill="#67bee9" points="402.38 204.49 642.04 204.49 642.04 733.7 341.1 733.7 341.1 265.77 402.38 204.49" class="color6b67e9 svgShape"></polygon><polygon fill="#7dd1fb" points="402.38 265.77 341.1 265.77 402.38 204.49 402.38 265.77" class="color807dfb svgShape"></polygon><rect width="239.65" height="16.02" x="402.38" y="204.49" fill="#7dd1fb" class="color807dfb svgShape"></rect><rect width="239.65" height="16.02" x="357.12" y="717.68" fill="#7dd1fb" class="color807dfb svgShape"></rect><rect width="16.02" height="467.93" x="341.1" y="265.77" fill="#7dd1fb" class="color807dfb svgShape"></rect><polygon fill="#2e7294" points="512.24 295.36 642.04 204.49 642.04 733.7 512.24 824.57 512.24 295.36" class="color362e94 svgShape"></polygon><rect width="444.86" height="529.21" x="606.8" y="252.54" fill="#67bee9" class="color6b67e9 svgShape"></rect><polygon fill="#3e89af" points="512.24 295.36 606.8 252.54 606.8 781.75 512.24 824.57 512.24 295.36" class="color423eaf svgShape"></polygon><rect width="444.86" height="16.02" x="606.8" y="252.54" fill="#7dd1fb" class="color807dfb svgShape"></rect><rect width="16.02" height="497.17" x="1035.64" y="268.56" fill="#7dd1fb" class="color807dfb svgShape"></rect><rect width="444.86" height="16.02" x="606.8" y="765.74" fill="#7dd1fb" class="color807dfb svgShape"></rect><polygon fill="#1793d1" points="606.8 268.56 512.24 311.38 512.24 295.36 606.8 252.54 606.8 268.56" class="color5652cc svgShape"></polygon><polygon fill="#1793d1" points="606.8 781.75 512.24 824.57 512.24 808.55 606.8 765.74 606.8 781.75" class="color5652cc svgShape"></polygon><path fill="#7dd1fb" d="M1035.64,726.94a3.21,3.21,0,1,0,0-6.41H997.35V706.65h38.29a3.2,3.2,0,1,0,0-6.4H849.25a3.19,3.19,0,0,0-3.2,3.19v68.4a3.21,3.21,0,1,0,6.41,0V748h55.79v19.48a3.21,3.21,0,1,0,6.41,0V748H949.5v19.48a3.2,3.2,0,1,0,6.4,0V748h35v19.69a3.21,3.21,0,0,0,6.41,0V748h38.29a3.21,3.21,0,1,0,0-6.41H997.35V726.94Zm-44.7-6.41h-35V706.65h35Zm-41.44,0H914.66V706.65H949.5Zm-41.25-13.88v13.88H852.46V706.65Zm-55.79,35V726.94h55.79v14.68Zm62.2,0V726.94H949.5v14.68Zm76.28,0h-35V726.94h35Z" class="color807dfb svgShape"></path><path fill="#d1e8f3" d="M1246.67,359.4c4.43,6.52-4.78,32.34-25.43,54.26-9.2-7-22.33-20.33-28.91-29.89C1213.44,362.57,1234.5,341.46,1246.67,359.4Z" class="colord1d7f3 svgShape"></path><path fill="#c7e4f2" d="M1193.62,385.57c-13.46,13.52-24.43,24.26-31.49,28.83-14.32-6.44-40.56-36-46.16-44.1-2.58-3,.38-4.88-.5-9.64-.84-4.5,1.07-11.14-.35-11.58s-3.43,7.12-3.73,8.61c-1.08-2.45-5.57-15.57-8.71-14.73-2.59.68-4.49-.88-6.56,1.43s-4.08,8.75-1.71,14.73,3.91,9.88,6.53,12.21a23.87,23.87,0,0,1,4.64,6.24s32.28,54.36,50.54,65.93c21.65,1.52,49.39-15.49,63.84-30.83C1211.44,405,1202.27,394.31,1193.62,385.57Z" class="colorf2cec7 svgShape"></path><path fill="url(#a)" d="M1204.64,512.94c0,38.53.14,211.27.14,290.17h14c7.86-19.56,60.29-253,65.6-290.17Z"></path><path fill="#c0e0f0" d="M1218.78,808.24v-5.13h-14a34.72,34.72,0,0,1-1.61,9.32C1206.81,813.83,1212.13,810.22,1218.78,808.24Z" class="colorf0ccc0 svgShape"></path><path fill="#3e89af" d="M1218.78,808.24c-6.65,2-12,5.59-15.61,4.19-1.93,1.4-30.32,11.61-33.22,13.59s-2.51,5.17.62,5.17c4.57,0,42.28-1.66,42.28-1.66.76.83,1.38,1.66,1.38,1.66h8.62C1225.42,826.73,1224.72,813.37,1218.78,808.24Z" class="color423eaf svgShape"></path><path fill="#c0e0f0" d="M1321.73,808.24v-5.13h-14a34.31,34.31,0,0,1-1.61,9.32C1309.76,813.83,1315.09,810.22,1321.73,808.24Z" class="colorf0ccc0 svgShape"></path><path fill="#3e89af" d="M1321.73,808.24c-6.64,2-12,5.59-15.61,4.19-1.93,1.4-30.32,11.61-33.21,13.59s-2.52,5.17.61,5.17c4.57,0,42.28-1.66,42.28-1.66a21.37,21.37,0,0,1,1.38,1.66h8.62C1328.37,826.73,1327.67,813.37,1321.73,808.24Z" class="color423eaf svgShape"></path><path fill="url(#b)" d="M1307.91,512.94c.79,14.62,13.82,211.27,13.82,290.17h-14c-7.86-19.56-74.26-253-79.57-290.17Z"></path><path fill="#ddeff8" d="M1307.91,512.94H1204.64c2.69-37.33,3.5-132.28,20.62-153.17,20.26-24.71,34.8-21.86,54.65-2C1306.7,384.55,1312,481.82,1307.91,512.94Z" class="colordde2f8 svgShape"></path><path fill="#d0ebf8" d="M1264.73,319.09c-.61,5-.85,24,3.38,29.39-3,2.31-19.14,5.57-31.16.75,2.58-3.18,6.66-5.33,3.37-11-3.59-6.16-9.67,2.12-14.49-8-5.61-11.77-7.31-35-1.74-41.45,6.23-7.24,18.66-16.09,35.47-6.22C1273.27,290.64,1266,309,1264.73,319.09Z" class="colorf8d8d0 svgShape"></path><path fill="#19526f" d="M1252.08,307.69c-3.81.06-1.87-9.94-4.67-12.32-3.31-2.82-14.39-4.45-25.12-3.26s-17.44-12.83-10.58-18.65,13.12,2.2,18.24.49c6-2,4.9-9.27,13.76-8.5,8.19.7,4.48,8.32,9.68,9.67,5.36,1.39,13.24-5.72,19.79,2.68,4.86,6.24-2.45,9.88-1.67,16.82.49,4.33,11.27,17.11-.35,22.54s-9-6.48-8.34-11.39-1.62-8.15-4.07-8.25S1257.52,307.62,1252.08,307.69Z" class="color20196f svgShape"></path><path fill="#c4dde9" d="M1266.57,343.9c-2.84,1.43-20.65,4.55-26.77,1a17.68,17.68,0,0,0-2.85,4.35c4.26,2.56,20.26,5.27,31.44-.48C1267.68,346.82,1266.57,343.9,1266.57,343.9Z" class="colorc4cae9 svgShape"></path><path fill="#3e89af" d="M1090,851c-20.53,0-38.76-5.32-56.63-10.53-27-7.88-52.6-15.33-82.06-1.17a2,2,0,1,1-1.77-3.69c30.87-14.84,57.16-7.18,85,.93,28.11,8.19,57.17,16.67,94.54,3.47,26.16-9.24,41.58-26,38.39-41.63-3.34-16.38-29.06-34.14-90.51-30.26a2.11,2.11,0,0,1-2.17-1.92,2,2,0,0,1,1.91-2.17c64-4,90.94,14.68,94.78,33.53,3.68,18-12.43,36.21-41,46.31A119.73,119.73,0,0,1,1090,851Z" class="color423eaf svgShape"></path><path fill="#ddeff8" d="M961.53,836.29c8.79,8.78,8.05,52.05-53.94,81.39s-82.32,8-88.47,0-1.55-52.53,42.11-75.71C897.3,822.82,947.58,822.34,961.53,836.29Z" class="colordde2f8 svgShape"></path><path fill="#bbd8e6" d="M941.33,827.89a134.8,134.8,0,0,0-29.05,7l1.05,2.63c6.51-2.6,23.54-7.28,37.06-7.43A62.07,62.07,0,0,0,941.33,827.89Z" class="colorbbc0e6 svgShape"></path><path fill="#ceeaf8" d="M965.38,846.42c.06,6.14-12,25.15-27,33.23-28.89,15.58-72,.86-84.81,53,13,0,30.54-3.87,54.05-15C956.1,894.72,967.1,863.23,965.38,846.42Z" class="colorced3f8 svgShape"></path><path fill="#3e89af" d="M883.17,846.42c-1.5,3.37,8,4.57,12.69,2.44s22.26-10.65,22.26-10.65c-1.33-2-6.45-12-21.24-5.72C888.36,836.13,885.94,840.21,883.17,846.42Z" class="color423eaf svgShape"></path><rect width="85.41" height="545" x="1029.01" y="286.18" fill="#3ebfff" class="colorffd03e svgShape"></rect><path fill="#009eed" d="M1061.9,311.41a9.82,9.82,0,1,1,9.82,9.81A9.82,9.82,0,0,1,1061.9,311.41Z" class="colored9f00 svgShape"></path><path fill="#ffffff" d="M1066.66,311.41a5.06,5.06,0,1,1,5.06,5A5.07,5.07,0,0,1,1066.66,311.41Z" class="colorffffff svgShape"></path><path fill="#3e89af" d="M1040.22,673.21H1029v6.41h11.21a3.21,3.21,0,1,0,0-6.41Zm0,46.45H1029v6.41h11.21a3.21,3.21,0,1,0,0-6.41Zm0-23.22H1029v6.4h11.21a3.2,3.2,0,1,0,0-6.4Zm0-46.46H1029v6.41h11.21a3.21,3.21,0,1,0,0-6.41Zm0-23.22H1029v6.41h11.21a3.21,3.21,0,1,0,0-6.41Zm0,139.35H1029v6.41h11.21a3.21,3.21,0,1,0,0-6.41Zm0,46.45H1029V819h11.21a3.21,3.21,0,1,0,0-6.41Zm3.21-507.76a3.21,3.21,0,0,0-3.21-3.2H1029V308h11.21A3.21,3.21,0,0,0,1043.43,304.8Zm-3.21,298.73H1029v6.41h11.21a3.21,3.21,0,1,0,0-6.41Zm0,185.81H1029v6.41h11.21a3.21,3.21,0,1,0,0-6.41Zm0-46.45H1029v6.41h11.21a3.21,3.21,0,1,0,0-6.41Zm0-209H1029v6.41h11.21a3.21,3.21,0,1,0,0-6.41Zm0-162.57H1029v6.4h11.21a3.2,3.2,0,1,0,0-6.4Zm0,46.45H1029v6.4h11.21a3.2,3.2,0,1,0,0-6.4Zm0,162.58H1029v6.41h11.21a3.21,3.21,0,1,0,0-6.41Zm0-232.26H1029v6.41h11.21a3.21,3.21,0,1,0,0-6.41Zm0-23.22H1029v6.4h11.21a3.2,3.2,0,1,0,0-6.4Zm0,69.67H1029v6.41h11.21a3.21,3.21,0,1,0,0-6.41Zm0,46.46H1029v6.4h11.21a3.2,3.2,0,1,0,0-6.4Zm0,116.12H1029v6.41h11.21a3.21,3.21,0,1,0,0-6.41Zm0-46.45H1029V517h11.21a3.21,3.21,0,1,0,0-6.41Zm0-23.23H1029v6.41h11.21a3.21,3.21,0,1,0,0-6.41Zm0-23.22H1029v6.41h11.21a3.21,3.21,0,1,0,0-6.41Z" class="color423eaf svgShape"></path><path fill="#f1f4f6" d="M1277.8,361.22c5.36,5.78.15,32.69-17,57.47-10.15-5.49-25.15-16.73-33.09-25.2C1245.43,369.36,1263.08,345.32,1277.8,361.22Z" class="colorf1f1f6 svgShape"></path><path fill="#d0ebf8" d="M1092.35,460.93c3-1.12,4.37,1.5,12.74.35-1-1.36-7.93-6-6.25-6.81,1-1.1,5.24,3,9.69,4.19,4.67,1.2,7.9,4,11.89,3.9,10.61.67,57.61-16,76.1-25.35,7.93-4,21.35-26.52,32.78-42.13,9.87,7.34,20.53,16.5,30.12,22.82-12,17.35-41.34,45.75-54.14,48.65-38.76,8.74-85.28,8.07-85.28,8.07s-4.89,1.58-8.94,2.47a36.4,36.4,0,0,1-11.08.62c-4.85-.28-6.79-3.95-8-6.8S1090,463.29,1092.35,460.93Z" class="colorf8d8d0 svgShape"></path><path fill="none" stroke="#ffffff" stroke-width="6" d="M926.66,538.31a7.53,7.53,0,0,0,7.51-6.81c.39-4.41.6-8.89.6-13.41s-.21-9-.6-13.41a7.54,7.54,0,0,0-7.51-6.8H915.07a7.55,7.55,0,0,1-7.36-6q-1.25-5.81-3-11.41a7.53,7.53,0,0,1,3.38-8.86l10-5.8a7.52,7.52,0,0,0,3.09-9.65A147.31,147.31,0,0,0,907.75,433a7.51,7.51,0,0,0-9.89-2.13l-10,5.8a7.54,7.54,0,0,1-9.36-1.51q-4-4.37-8.36-8.35a7.56,7.56,0,0,1-1.5-9.37l5.8-10a7.53,7.53,0,0,0-2.14-9.89A147.22,147.22,0,0,0,849.05,384a7.52,7.52,0,0,0-9.65,3.1l-5.8,10a7.55,7.55,0,0,1-8.86,3.38q-5.6-1.79-11.41-3.05a7.54,7.54,0,0,1-6-7.36V378.56a7.52,7.52,0,0,0-6.8-7.51c-4.42-.4-8.88-.61-13.41-.61s-9,.21-13.41.61a7.52,7.52,0,0,0-6.8,7.51v11.58a7.54,7.54,0,0,1-6,7.36q-5.8,1.26-11.41,3.05a7.56,7.56,0,0,1-8.86-3.38l-5.8-10a7.52,7.52,0,0,0-9.65-3.1A147.67,147.67,0,0,0,702,397.46a7.52,7.52,0,0,0-2.13,9.89l5.79,10a7.56,7.56,0,0,1-1.5,9.37q-4.38,4-8.36,8.35a7.54,7.54,0,0,1-9.36,1.51l-10-5.8a7.51,7.51,0,0,0-9.89,2.13,147.31,147.31,0,0,0-13.43,23.22,7.52,7.52,0,0,0,3.09,9.65l10,5.8a7.53,7.53,0,0,1,3.38,8.86q-1.79,5.59-3,11.41a7.53,7.53,0,0,1-7.36,6H647.58a7.52,7.52,0,0,0-7.5,6.8q-.6,6.63-.61,13.41c0,4.52.21,9,.61,13.41a7.51,7.51,0,0,0,7.5,6.81h11.59a7.54,7.54,0,0,1,7.36,6q1.26,5.82,3,11.41a7.53,7.53,0,0,1-3.38,8.86l-10,5.8a7.52,7.52,0,0,0-3.09,9.65,147.31,147.31,0,0,0,13.43,23.22,7.51,7.51,0,0,0,9.89,2.13l10-5.8a7.54,7.54,0,0,1,9.36,1.51c2.65,2.91,5.44,5.71,8.36,8.35a7.56,7.56,0,0,1,1.5,9.37l-5.79,10a7.51,7.51,0,0,0,2.13,9.89,147.67,147.67,0,0,0,23.21,13.43,7.52,7.52,0,0,0,9.65-3.1l5.8-10a7.56,7.56,0,0,1,8.86-3.38q5.61,1.8,11.41,3.05a7.54,7.54,0,0,1,6,7.36v11.58a7.52,7.52,0,0,0,6.8,7.51c4.41.4,8.89.61,13.41.61s9-.21,13.41-.61a7.52,7.52,0,0,0,6.8-7.51V646.05a7.54,7.54,0,0,1,6-7.36q5.8-1.26,11.41-3.05A7.55,7.55,0,0,1,833.6,639l5.8,10a7.52,7.52,0,0,0,9.65,3.1,147.22,147.22,0,0,0,23.21-13.43,7.53,7.53,0,0,0,2.14-9.89l-5.8-10a7.56,7.56,0,0,1,1.5-9.37c2.92-2.64,5.71-5.44,8.36-8.35a7.54,7.54,0,0,1,9.36-1.51l10,5.8a7.51,7.51,0,0,0,9.89-2.13A147.31,147.31,0,0,0,921.18,580a7.52,7.52,0,0,0-3.09-9.65l-10-5.8a7.53,7.53,0,0,1-3.38-8.86q1.79-5.6,3-11.41a7.56,7.56,0,0,1,7.36-6Z" class="colorStrokeffffff svgStroke"></path><path fill="none" stroke="#ffffff" stroke-width="6" d="M787.12,406.92A111.18,111.18,0,1,0,898.3,518.09,111.17,111.17,0,0,0,787.12,406.92Z" class="colorStrokeffffff svgStroke"></path><path fill="none" stroke="#ffffff" stroke-width="6" d="M787.12,452.24A65.86,65.86,0,1,0,853,518.09,65.86,65.86,0,0,0,787.12,452.24Zm0,114.9a49,49,0,1,1,49-49A49,49,0,0,1,787.12,567.14Z" class="colorStrokeffffff svgStroke"></path><rect width="175.39" height="4.1" x="821.76" y="661.07" fill="#9cdeff" class="color9f9cff svgShape"></rect><rect width="175.39" height="4.1" x="821.76" y="370.9" fill="#9cdeff" class="color9f9cff svgShape"></rect><rect width="4.1" height="266.14" x="973.88" y="384.69" fill="#9cdeff" class="color9f9cff svgShape"></rect><polygon fill="#9cdeff" points="975.93 372.95 970.19 390.83 981.66 390.83 975.93 372.95" class="color9f9cff svgShape"></polygon><polygon fill="#9cdeff" points="975.93 663.12 981.66 645.24 970.19 645.24 975.93 663.12" class="color9f9cff svgShape"></polygon><polygon fill="#9cdeff" points="950.07 551.87 950.07 483 965.55 487.26 965.55 556.14 950.07 551.87" class="color9f9cff svgShape"></polygon><rect width="4.1" height="175.8" x="929.89" y="309.28" fill="#9cdeff" class="color9f9cff svgShape"></rect><rect width="4.1" height="175.8" x="639.72" y="309.28" fill="#9cdeff" class="color9f9cff svgShape"></rect><rect width="267.37" height="4.1" x="653.17" y="328.45" fill="#9cdeff" class="color9f9cff svgShape"></rect><polygon fill="#9cdeff" points="641.77 330.5 659.65 336.24 659.65 324.76 641.77 330.5" class="color9f9cff svgShape"></polygon><polygon fill="#9cdeff" points="931.94 330.5 914.05 324.76 914.05 336.24 931.94 330.5" class="color9f9cff svgShape"></polygon><polygon fill="#9cdeff" points="757.15 304.87 826.03 304.87 821.76 320.35 752.88 320.35 757.15 304.87" class="color9f9cff svgShape"></polygon><polygon fill="#9cdeff" points="662.04 691.37 708.9 691.37 704.63 706.85 657.77 706.85 662.04 691.37" class="color9f9cff svgShape"></polygon><polygon fill="#9cdeff" points="804.7 451.39 814.81 435.55 803.71 432.63 804.7 451.39" class="color9f9cff svgShape"></polygon><polygon fill="#9cdeff" points="770.34 581.78 760.23 597.61 771.33 600.53 770.34 581.78" class="color9f9cff svgShape"></polygon><rect width="122.75" height="4.1" x="725.74" y="516.08" fill="#9cdeff" transform="rotate(-75.23 787.13 518.13)" class="color9f9cff svgShape"></rect><polygon fill="#9cdeff" points="736.4 718.59 648.76 718.59 648.76 714.49 733.25 714.49 763.8 598.55 767.76 599.6 736.4 718.59" class="color9f9cff svgShape"></polygon><rect width="12.45" height="4.1" x="626.61" y="516.04" fill="#ffffff" class="colorffffff svgShape"></rect><rect width="8.66" height="4.1" x="645.64" y="516.04" fill="#ffffff" class="colorffffff svgShape"></rect><path fill="#ffffff" d="M931.9,520.14H901.41V516H931.9Zm-39.16,0h-8.66V516h8.66Zm-17.33,0H840.76V516h34.65Zm-43.32,0h-8.66V516h8.66Zm-17.33,0H780.1V516h34.66Zm-43.32,0h-8.67V516h8.67Zm-17.33,0H719.45V516h34.66Zm-43.33,0h-8.66V516h8.66Zm-17.33,0H658.79V516h34.66Z" class="colorffffff svgShape"></path><rect width="12.45" height="4.1" x="935.19" y="516.04" fill="#ffffff" class="colorffffff svgShape"></rect><rect width="4.1" height="12.45" x="785.07" y="357.58" fill="#ffffff" class="colorffffff svgShape"></rect><rect width="4.1" height="8.66" x="785.07" y="376.61" fill="#ffffff" class="colorffffff svgShape"></rect><path fill="#ffffff" d="M789.17,662.87h-4.1V632.38h4.1Zm0-39.15h-4.1v-8.67h4.1Zm0-17.33h-4.1V571.73h4.1Zm0-43.33h-4.1V554.4h4.1Zm0-17.33h-4.1V511.07h4.1Zm0-43.32h-4.1v-8.66h4.1Zm0-17.33h-4.1V450.42h4.1Zm0-43.32h-4.1v-8.67h4.1Zm0-17.33h-4.1V389.77h4.1Z" class="colorffffff svgShape"></path><rect width="4.1" height="12.45" x="785.07" y="666.16" fill="#ffffff" class="colorffffff svgShape"></rect><path fill="#ceeaf8" d="M345.41,516.06c22.43,32.94,48.32,64,58.89,71.23,9.08,6.25,49.1,24,64.79,27.44a55.43,55.43,0,0,0-1.1,11.32c-9.89-.27-54.33-6.69-70.43-14.72-14.12-7-20.07-14.2-35.53-26.09S345.41,516.06,345.41,516.06Z" class="colorced3f8 svgShape"></path><path fill="#c0e0f0" d="M468.56,615.34c6.67,3.21,11.89-1.78,18.94-.27s8.09,1.63,7.29,3.1-9.74.08-8.88,1.23c1.5,2,19.8,1.67,20.54,4.19.52,1.73-11,1.35-16.24.55,3,3.49,19.93.44,19.38,3.05-.37,1.75-15.23,3.27-20.06.64,2.71,3.32,17.47,1.26,17.79,3.61.26,1.9-13.45,2.77-17.95.52,3,2.53,10.33,2.22,10,3.78-.44,1.94-12.41.38-21.56-2.89-7.23-2.58-5.94-4.83-10.24-7.18A25.63,25.63,0,0,1,468.56,615.34Z" class="colorf0ccc0 svgShape"></path><path fill="#06aafc" d="M468.15,628.7s1.45-15.54,1.7-16.55c-3-1.23-9.64-2.35-9.79-2.59-.69,2.84-3.72,18.92-3.45,19.34C458.15,629.21,468.15,628.7,468.15,628.7Z" class="colorfcba06 svgShape"></path><path fill="#2e7294" d="M389.1,974.61c-2,0-4.45,2.19-4.77,4.52h-3.62a19.75,19.75,0,0,1-1.64-13.7c1.19-4.85,2.43-3.68,3.69-2.42,2.87,2.34,14.59,3.13,15.52-.81,3,.47,34.18,9.49,34.17,12.37,0,4.67-3.67,4.65-6.16,4.65C396.81,979.15,400.72,977.35,389.1,974.61Z" class="color362e94 svgShape"></path><path fill="#c9e8f7" d="M395.11,957.24c-1-4.45-13.85-7.81-13.2,0a10.51,10.51,0,0,1-.68,4.95h0c2.87,2.35,29.69,10.69,34.13,4.94C412.29,965.44,395.1,962,395.11,957.24Z" class="colorf7d3c9 svgShape"></path><path fill="#2e7294" d="M379.62 648.69c15.74 117.07 15.74 229.56 15.74 307.7H381.49C377.66 946.87 356 865.33 356 820.83c-12.32-37.62-39.1-153.4-41.77-172.14zM297 974.61c-2 0-4.46 2.19-4.77 4.52H288.6a19.75 19.75 0 01-1.64-13.7c1.18-4.85 2.43-3.68 3.68-2.42 2.87 2.34 14.6 3.13 15.53-.81 3 .47 34.17 9.49 34.17 12.37 0 4.67-3.67 4.65-6.17 4.65C304.69 979.15 308.6 977.35 297 974.61z" class="color362e94 svgShape"></path><path fill="#c9e8f7" d="M303,957.24c-1-4.45-13.85-7.81-13.2,0a10.51,10.51,0,0,1-.67,4.95h0c2.87,2.35,29.7,10.69,34.14,4.94C320.17,965.44,303,962,303,957.24Z" class="colorf7d3c9 svgShape"></path><path fill="#3e89af" d="M300.08,648.69c-9.82,30.84-3.87,100.28-.77,162.65-11,39.13-9.89,109.87-9.89,145h13.86c7.79-19.37,63.65-270.85,68.92-307.7Z" class="color423eaf svgShape"></path><path fill="#c9e8f7" d="M318.37,513.25c-2.91,3.8,28.86,10.63,31.11,9.46,1.11-.58,1-5.08.26-7.19-4.57-6-3-11.21-2.7-14.73,8.53,2,12-2.23,12.54-14.54a6.54,6.54,0,0,0,4.07-.84c.16-1.68-2.73-5.83-2.38-9.67a59.4,59.4,0,0,0,.29-13.67c-.63-6.36-7.16-17.14-21.93-17.22-17.29-.1-22.52,11.54-23.35,26.4C315.35,487.74,336.78,489.13,318.37,513.25Z" class="colorf7d3c9 svgShape"></path><path fill="#e7f7ff" d="M300.08,648.69h79.54c-4.18-16.11-8.38-34.33-4.44-50.15C378,587.1,387.61,576.76,386.93,574c-4-16.29-29.39-45.16-37.19-58.46a30,30,0,0,1-.64,6.55c-7.84-2.37-20.13-5.8-30.73-8.82C297,544.09,301.69,614.13,300.08,648.69Z" class="colore7eeff svgShape"></path><path fill="#ceeaf8" d="M373.08,648.49c-9.85-43.41-1.46-58.46,3.54-67.46,1.75-3.11,3.12-5.58,3.11-8.26,0-5.79-11.08-22.92-24.46-43.06-2.22-3.33-4.28-6.43-5.94-9-.07.44-.14.87-.23,1.36l-1.3-.39c1.64,2.54,3.68,5.6,6,9,9.62,14.47,24.16,36.34,24.17,42.06,0,2.2-1.21,4.37-2.88,7.38-5.13,9.2-13.71,24.6-3.78,68.53h.92Z" class="colorced3f8 svgShape"></path><path fill="#ffffff" d="M349.73,516.82l5.47,7s-2.77-6.78-5.71-10.35a10.51,10.51,0,0,0-1.63-1.09C348.18,513.29,349.73,516.82,349.73,516.82Z" class="colorffffff svgShape"></path><polygon fill="#ffffff" points="344.03 520.56 339.27 530.74 319.49 513.57 344.03 520.56" class="colorffffff svgShape"></polygon><polygon fill="#e9f2f7" points="599.68 578.41 610.96 629.22 658.12 600.94 654.39 584.09 599.68 578.41" class="colore9edf7 svgShape"></polygon><polygon fill="#2e7294" points="654.39 584.09 658.12 600.94 681.52 586.91 654.39 584.09" class="color362e94 svgShape"></polygon><path fill="#bbd8e6" d="M232.5,711.82l-31.19,6.92a6.45,6.45,0,0,1-7.71-4.91l-7.89-35.53a6.46,6.46,0,0,1,4.91-7.72l31.19-6.92Z" class="colorbbc0e6 svgShape"></path><rect width="11.41" height="52.06" x="227.03" y="660.47" fill="#f6f9fb" transform="rotate(-12.51 232.727 686.512)" class="colorf6f6fb svgShape"></rect><rect width="11.42" height="52.06" x="238.17" y="658" fill="#ddeff8" transform="rotate(-12.51 243.969 684.19)" class="colordde2f8 svgShape"></rect><rect width="11.42" height="52.05" x="249.32" y="655.53" fill="#f6f9fb" transform="rotate(-12.52 255.136 681.736)" class="colorf6f6fb svgShape"></rect><rect width="11.42" height="52.05" x="260.47" y="653.05" fill="#ddeff8" transform="rotate(-12.51 266.22 679.15)" class="colordde2f8 svgShape"></rect><polygon fill="#f6f9fb" points="288.54 700.78 277.4 703.25 266.12 652.43 277.27 649.96 288.54 700.78" class="colorf6f6fb svgShape"></polygon><path fill="#06aafc" d="M605.32,603.82,282.91,675.37,277.27,650l322.41-71.55,12.09,5.3a6.48,6.48,0,0,1,2.27,10.2Z" class="colorfcba06 svgShape"></path><path fill="#0096e1" d="M611,629.22,288.54,700.78l-5.63-25.41,322.41-71.55,12.09,5.29a6.49,6.49,0,0,1,2.27,10.21Z" class="colore19100 svgShape"></path><path fill="#c9e8f7" d="M436,638.47c2.83.72,3.94,2.25,9,.44s6.63-3.15,9-3.91,9.29-3.73,9.52-2.53-7.45,5.4-7,6.17,22.93,1.4,20.79,5.31-10.52,11.84-21.77,11.43c-7.52-.28-14.11-4.15-18.85-3.65C431.34,648.12,432,642.44,436,638.47Z" class="colorf7d3c9 svgShape"></path><path fill="#f6f9fb" d="M304.3,546.16c-1.87-9.59,4.73-24.62,14.41-23.66s19.89,8.56,27,28.3c18.45,51.53,38.89,74.1,93.46,88.69,0,0-.47,11.3-.69,16.55C335,645.19,311.82,584.79,304.3,546.16Z" class="colorf6f6fb svgShape"></path><path fill="#e7f7ff" d="M438.84,656.61s.35-18.18.55-19.37a81.32,81.32,0,0,0-11.58-2.64c-.56,3.36-2.66,21.49-2.32,21.95C427.31,656.78,438.84,656.61,438.84,656.61Z" class="colore7eeff svgShape"></path><path fill="#2e7294" d="M363.09,456.63c1.41,7.17-3.79,17-17.23,19.33-16.13,2.82-13.77,12.43-10.61,18.6,5.39,10.55-9.93,25.77-21.36,32.87-15.34,9.52-34.33,7.45-45.42-3.3-15.85-15.37,5.24-24.46,21.88-24.45,7.52,0,19.13-6.62,17.89-16.57-1.06-8.56-1-18.39,1.38-25.57,4.92-15,16.24-23,30.12-21.77S360.61,444.05,363.09,456.63Z" class="color362e94 svgShape"></path></g></svg>
